<svg width="40" height="60" viewBox="0 0 40 60" fill="none" xmlns="http://www.w3.org/2000/svg">
<path fill-rule="evenodd" clip-rule="evenodd" d="M4 42H6V18H4V42ZM34 42H36V18H34V42ZM25.83 37.004C24.373 38.459 22.338 39.267 20.248 39.267C18.158 39.267 16.205 38.593 14.72 37.139C12.603 35.064 12.3 32.505 12.3 29.38C12.3 26.255 12.603 23.696 14.72 21.622C16.205 20.167 18.158 19.467 20.248 19.467C22.338 19.467 24.373 20.221 25.83 21.676C26.957 22.806 27.535 24.316 27.7 25.824H24.07C23.988 24.989 23.685 24.396 23.19 23.804C22.557 23.023 21.457 22.618 20.248 22.618C19.6888 22.6168 19.1351 22.7284 18.6199 22.9461C18.1048 23.1638 17.6389 23.4831 17.25 23.885C15.903 25.259 15.903 27.629 15.903 29.38C15.903 31.131 15.903 33.502 17.25 34.876C17.639 35.2777 18.105 35.5968 18.6201 35.8143C19.1352 36.0318 19.6888 36.1433 20.248 36.142C21.458 36.142 22.558 35.711 23.19 34.93C23.6951 34.3381 24.0027 33.6032 24.07 32.828H27.7C27.535 34.338 26.957 35.873 25.83 37.004Z" fill="#0A0A1A"/>
</svg>
