<svg width="40" height="60" fill="none" xmlns="http://www.w3.org/2000/svg"><path fill-rule="evenodd" clip-rule="evenodd" d="M8 42h2V18H8v24ZM38 42h2V18h-2v24ZM29.83 37.004c-1.457 1.455-3.492 2.263-5.582 2.263s-4.043-.674-5.528-2.128c-2.117-2.075-2.42-4.634-2.42-7.759s.303-5.684 2.42-7.758c1.485-1.455 3.438-2.155 5.528-2.155 2.09 0 4.125.754 5.582 2.209 1.127 1.13 1.705 2.64 1.87 4.148h-3.63c-.082-.835-.385-1.428-.88-2.02-.633-.781-1.733-1.186-2.942-1.186a4.16 4.16 0 0 0-2.998 1.267c-1.347 1.374-1.347 3.744-1.347 5.495s0 4.122 1.347 5.496a4.16 4.16 0 0 0 2.998 1.266c1.21 0 2.31-.431 2.942-1.212a3.736 3.736 0 0 0 .88-2.102h3.63c-.165 1.51-.743 3.045-1.87 4.176Z" fill="#0A0A1A"/></svg>